<svg xmlns="http://www.w3.org/2000/svg" xmlns:xlink="http://www.w3.org/1999/xlink" width="333.145" height="430.402" viewBox="0 0 333.145 430.402"><defs><style>.a{fill:url(#a);}.b{fill:url(#b);}.c{fill:url(#c);}.d{fill:url(#d);}.e{fill:url(#f);}.f{fill:url(#g);}.g{fill:url(#h);}.h{fill:url(#i);}.i{fill:url(#k);}.j{fill:url(#m);}</style><linearGradient id="a" x1="0.146" y1="0.146" x2="0.854" y2="0.854" gradientUnits="objectBoundingBox"><stop offset="0" stop-color="#eab2f5"/><stop offset="1" stop-color="#9e6ff1"/></linearGradient><linearGradient id="b" x1="0.146" y1="0.146" x2="0.854" y2="0.854" xlink:href="#a"/><linearGradient id="c" x1="0.146" y1="0.146" x2="0.854" y2="0.854" gradientUnits="objectBoundingBox"><stop offset="0" stop-color="#ff43c0"/><stop offset="1" stop-color="#ffa95c"/></linearGradient><linearGradient id="d" x1="0.146" y1="0.146" x2="0.854" y2="0.854" gradientUnits="objectBoundingBox"><stop offset="0" stop-color="#81f5bb"/><stop offset="1" stop-color="#02c59e"/></linearGradient><linearGradient id="f" x1="0.146" y1="0.146" x2="0.854" y2="0.854" xlink:href="#c"/><linearGradient id="g" x1="0.146" y1="0.146" x2="0.854" y2="0.854" xlink:href="#d"/><linearGradient id="h" x1="0.146" y1="0.146" x2="0.854" y2="0.854" gradientUnits="objectBoundingBox"><stop offset="0" stop-color="#ecdb8c"/><stop offset="0.481" stop-color="#ceb05d"/><stop offset="1" stop-color="#b3903e"/></linearGradient><linearGradient id="i" x1="0.146" y1="0.146" x2="0.854" y2="0.854" xlink:href="#c"/><linearGradient id="k" x1="0.146" y1="0.146" x2="0.854" y2="0.854" xlink:href="#h"/><linearGradient id="m" x1="0.146" y1="0.146" x2="0.854" y2="0.854" xlink:href="#a"/></defs><g transform="matrix(0.899, -0.438, 0.438, 0.899, -135.013, 149.145)"><g transform="translate(0 14.247)"><path class="a" d="M408.066,371.383a2.47,2.47,0,1,1-2.47-2.47A2.47,2.47,0,0,1,408.066,371.383Z" transform="translate(-227.997 -115.206)"/><circle class="b" cx="2.47" cy="2.47" r="2.47" transform="translate(300.526 276.912)"/><circle class="c" cx="2.47" cy="2.47" r="2.47" transform="translate(387.53 89.898)"/><circle class="d" cx="2.47" cy="2.47" r="2.47" transform="translate(337.162 209.738)"/><path class="d" d="M339.108,354.162a2.47,2.47,0,1,1-2.47-2.47A2.471,2.471,0,0,1,339.108,354.162Z" transform="translate(-219.341 -113.045)"/><path class="e" d="M207.8,417.164a2.47,2.47,0,1,1-2.47-2.47A2.47,2.47,0,0,1,207.8,417.164Z" transform="translate(-202.86 -120.953)"/><circle class="f" cx="2.47" cy="2.47" r="2.47" transform="translate(385.06 163.942)"/><circle class="g" cx="11.297" cy="11.297" r="11.297" transform="translate(203.874 316.859) rotate(-65.717)"/><path class="h" d="M619.253,408.813a11.3,11.3,0,1,1-11.3-11.3A11.3,11.3,0,0,1,619.253,408.813Z" transform="translate(-252.288 -118.796)"/><circle class="g" cx="8.216" cy="8.216" r="8.216" transform="translate(342.904 94.838)"/><path class="i" d="M652.5,339.241a5.264,5.264,0,1,1-5.264-5.264A5.264,5.264,0,0,1,652.5,339.241Z" transform="translate(-257.976 -110.821)"/><circle class="f" cx="2.47" cy="2.47" r="2.47" transform="translate(252.099 12.99)"/><circle class="j" cx="2.47" cy="2.47" r="2.47" transform="translate(364.494)"/></g></g></svg>