<svg xmlns="http://www.w3.org/2000/svg" width="182.381" height="160.031" viewBox="0 0 182.381 160.031"><defs><style>.a,.b{fill:#fff;}.a{font-size:67px;font-family:EdwardianScriptITC, Edwardian Script ITC;}</style></defs><g transform="translate(-204.836 -231.84)"><text class="a" transform="translate(204.836 336.912)"><tspan x="0" y="0">Beaut</tspan></text><g transform="translate(315.196 231.84)"><path class="b" d="M544.881,402.144s.579-18.532,13.32-32.045c0,0,22.007-22.007,11.969-52.893,0,0,15.057,28.763-11.776,57.719C558.394,374.925,549.707,383.034,544.881,402.144Z" transform="translate(-514.522 -281.879)"/><path class="b" d="M481.995,231.84c-4.161,7.434-7.813,14.807-9.5,23.269a42.52,42.52,0,0,0,.531,20.373c5.093,17.134,22.438,26.357,37.039,34.3a145.653,145.653,0,0,0,14.478,6.945c4.48,1.832,9.211,3.74,12.623,7.306,4.629,4.836,5.544,11.659,4.284,18.031a83.316,83.316,0,0,1-10.24,27.409c-4.549,7.526-9.509,15.509-16.155,21.381-.394.349-.8.689-1.21,1.015,7.431-5.859,13.1-13.921,18.081-21.875A77.918,77.918,0,0,0,542.8,342.405c1.641-9.268,1.076-18.1-6.908-24.29a24.52,24.52,0,0,0-3.135-2.057c-4.351-2.411-9.192-3.967-13.7-6.072a152.945,152.945,0,0,1-14.835-7.917q-1.294-.788-2.569-1.605c-7.9-5.059-15.994-10.951-21.439-18.713a36.05,36.05,0,0,1-4.173-7.8C470.638,259.831,474.891,244.532,481.995,231.84Z" transform="translate(-471.518 -231.84)"/></g></g></svg>