<svg xmlns="http://www.w3.org/2000/svg" xmlns:xlink="http://www.w3.org/1999/xlink" width="573.535" height="498.381" viewBox="0 0 573.535 498.381"><defs><style>.a{fill:url(#a);}.b{fill:url(#b);}.c{fill:url(#c);}.d{fill:url(#d);}.e{fill:url(#f);}.f{fill:url(#g);}.g{fill:url(#h);}.h{fill:url(#i);}.i{fill:url(#j);}.j{fill:url(#l);}.k{fill:url(#n);}.l{fill:url(#o);}.m{fill:url(#p);}</style><linearGradient id="a" x1="0.146" y1="0.146" x2="0.854" y2="0.854" gradientUnits="objectBoundingBox"><stop offset="0" stop-color="#eab2f5"/><stop offset="1" stop-color="#9e6ff1"/></linearGradient><linearGradient id="b" x1="0.146" y1="0.146" x2="0.854" y2="0.854" xlink:href="#a"/><linearGradient id="c" x1="0.146" y1="0.146" x2="0.854" y2="0.854" gradientUnits="objectBoundingBox"><stop offset="0" stop-color="#ff43c0"/><stop offset="1" stop-color="#ffa95c"/></linearGradient><linearGradient id="d" x1="0.146" y1="0.146" x2="0.854" y2="0.854" gradientUnits="objectBoundingBox"><stop offset="0" stop-color="#81f5bb"/><stop offset="1" stop-color="#02c59e"/></linearGradient><linearGradient id="f" x1="0.146" y1="0.146" x2="0.854" y2="0.854" xlink:href="#c"/><linearGradient id="g" x1="0.146" y1="0.146" x2="0.854" y2="0.854" xlink:href="#d"/><linearGradient id="h" x1="0.146" y1="0.146" x2="0.854" y2="0.854" gradientUnits="objectBoundingBox"><stop offset="0" stop-color="#ecdb8c"/><stop offset="0.481" stop-color="#ceb05d"/><stop offset="1" stop-color="#b3903e"/></linearGradient><linearGradient id="i" x1="0.146" y1="0.146" x2="0.854" y2="0.854" xlink:href="#c"/><linearGradient id="j" x1="0.146" y1="0.146" x2="0.854" y2="0.854" xlink:href="#c"/><linearGradient id="l" x1="0.146" y1="0.146" x2="0.854" y2="0.854" xlink:href="#h"/><linearGradient id="n" x1="0.146" y1="0.146" x2="0.854" y2="0.854" xlink:href="#h"/><linearGradient id="o" x1="0.146" y1="0.146" x2="0.854" y2="0.854" xlink:href="#a"/><linearGradient id="p" x1="0.146" y1="0.146" x2="0.854" y2="0.854" xlink:href="#a"/></defs><g transform="translate(0 10)"><g transform="translate(0 0)"><path class="a" d="M410.307,372.5a3.591,3.591,0,1,1-3.59-3.591A3.59,3.59,0,0,1,410.307,372.5Z" transform="translate(-148.536 14.154)"/><circle class="b" cx="3.591" cy="3.591" r="3.591" transform="translate(436.883 416.801)"/><circle class="c" cx="3.591" cy="3.591" r="3.591" transform="translate(563.363 144.933)"/><circle class="d" cx="3.591" cy="3.591" r="3.591" transform="translate(490.142 319.148)"/><path class="d" d="M341.349,355.282a3.591,3.591,0,1,1-3.591-3.59A3.592,3.592,0,0,1,341.349,355.282Z" transform="translate(-167.241 9.482)"/><path class="e" d="M210.041,418.284a3.591,3.591,0,1,1-3.59-3.59A3.591,3.591,0,0,1,210.041,418.284Z" transform="translate(-202.86 26.572)"/><circle class="f" cx="3.591" cy="3.591" r="3.591" transform="translate(559.773 252.573)"/><circle class="g" cx="16.422" cy="16.422" r="16.422" transform="translate(296.378 474.874) rotate(-65.717)"/><path class="h" d="M629.5,413.938a16.423,16.423,0,1,1-16.422-16.422A16.423,16.423,0,0,1,629.5,413.938Z" transform="translate(-96.038 21.913)"/><circle class="i" cx="16.422" cy="16.422" r="16.422" transform="translate(152.947 2.471) rotate(-22.314)"/><circle class="g" cx="11.944" cy="11.944" r="11.944" transform="translate(498.489 152.115)"/><path class="j" d="M657.281,341.63a7.652,7.652,0,1,1-7.653-7.653A7.652,7.652,0,0,1,657.281,341.63Z" transform="translate(-83.746 4.677)"/><circle class="f" cx="3.591" cy="3.591" r="3.591" transform="translate(366.483 33.13)"/><circle class="k" cx="3.591" cy="3.591" r="3.591" transform="translate(146.105 131.202)"/><circle class="l" cx="3.591" cy="3.591" r="3.591" transform="translate(529.875 14.247)"/><path class="m" d="M485.159,148.31a7.652,7.652,0,1,1-7.652-7.652A7.651,7.651,0,0,1,485.159,148.31Z" transform="translate(-130.435 -47.762)"/></g></g></svg>