<svg xmlns="http://www.w3.org/2000/svg" width="443.383" height="321.585" viewBox="0 0 443.383 321.585"><defs><style>.a{opacity:0.2;}.b{fill:#fff;}</style></defs><g class="a" transform="translate(172.379 475.58) rotate(-120)"><g transform="translate(0 14.247)"><path class="b" d="M408.066,371.383a2.47,2.47,0,1,1-2.47-2.47A2.47,2.47,0,0,1,408.066,371.383Z" transform="translate(-227.997 -115.206)"/><circle class="b" cx="2.47" cy="2.47" r="2.47" transform="translate(300.526 276.912)"/><circle class="b" cx="2.47" cy="2.47" r="2.47" transform="translate(387.53 89.898)"/><circle class="b" cx="2.47" cy="2.47" r="2.47" transform="translate(337.162 209.738)"/><path class="b" d="M339.108,354.162a2.47,2.47,0,1,1-2.47-2.47A2.471,2.471,0,0,1,339.108,354.162Z" transform="translate(-219.341 -113.045)"/><path class="b" d="M207.8,417.164a2.47,2.47,0,1,1-2.47-2.47A2.47,2.47,0,0,1,207.8,417.164Z" transform="translate(-202.86 -120.953)"/><circle class="b" cx="2.47" cy="2.47" r="2.47" transform="translate(385.06 163.942)"/><circle class="b" cx="11.297" cy="11.297" r="11.297" transform="translate(203.874 316.859) rotate(-65.717)"/><path class="b" d="M619.253,408.813a11.3,11.3,0,1,1-11.3-11.3A11.3,11.3,0,0,1,619.253,408.813Z" transform="translate(-252.288 -118.796)"/><circle class="b" cx="8.216" cy="8.216" r="8.216" transform="translate(342.904 94.838)"/><path class="b" d="M652.5,339.241a5.264,5.264,0,1,1-5.264-5.264A5.264,5.264,0,0,1,652.5,339.241Z" transform="translate(-257.976 -110.821)"/><circle class="b" cx="2.47" cy="2.47" r="2.47" transform="translate(252.099 12.99)"/><circle class="b" cx="2.47" cy="2.47" r="2.47" transform="translate(364.494)"/></g></g></svg>