<svg xmlns="http://www.w3.org/2000/svg" xmlns:xlink="http://www.w3.org/1999/xlink" width="375.097" height="410.178" viewBox="0 0 375.097 410.178"><defs><style>.a{opacity:0.3;}.b{fill:url(#a);}.c{fill:url(#b);}.d{fill:url(#c);}.e{fill:url(#d);}.f{fill:url(#f);}.g{fill:url(#g);}.h{fill:url(#h);}</style><linearGradient id="a" x1="0.146" y1="0.146" x2="0.854" y2="0.854" gradientUnits="objectBoundingBox"><stop offset="0" stop-color="#ff43c0"/><stop offset="1" stop-color="#ffa95c"/></linearGradient><linearGradient id="b" x1="0.146" y1="0.146" x2="0.854" y2="0.854" gradientUnits="objectBoundingBox"><stop offset="0" stop-color="#81f5bb"/><stop offset="1" stop-color="#02c59e"/></linearGradient><linearGradient id="c" x1="0.146" y1="0.146" x2="0.854" y2="0.854" xlink:href="#a"/><linearGradient id="d" x1="0.146" y1="0.146" x2="0.854" y2="0.854" gradientUnits="objectBoundingBox"><stop offset="0" stop-color="#ecdb8c"/><stop offset="0.481" stop-color="#ceb05d"/><stop offset="1" stop-color="#b3903e"/></linearGradient><linearGradient id="f" x1="0.146" y1="0.146" x2="0.854" y2="0.854" xlink:href="#d"/><linearGradient id="g" x1="0.146" y1="0.146" x2="0.854" y2="0.854" gradientUnits="objectBoundingBox"><stop offset="0" stop-color="#eab2f5"/><stop offset="1" stop-color="#9e6ff1"/></linearGradient><linearGradient id="h" x1="0.146" y1="0.146" x2="0.854" y2="0.854" xlink:href="#g"/></defs><g class="a" transform="matrix(0.309, -0.951, 0.951, 0.309, -47.142, 506.369)"><g transform="translate(0 0)"><circle class="b" cx="3.591" cy="3.591" r="3.591" transform="translate(563.363 144.933)"/><circle class="c" cx="3.591" cy="3.591" r="3.591" transform="translate(559.773 252.573)"/><circle class="d" cx="16.422" cy="16.422" r="16.422" transform="translate(152.947 2.471) rotate(-22.314)"/><circle class="e" cx="11.944" cy="11.944" r="11.944" transform="translate(498.489 152.115)"/><circle class="c" cx="3.591" cy="3.591" r="3.591" transform="translate(366.483 33.13)"/><circle class="f" cx="3.591" cy="3.591" r="3.591" transform="translate(146.105 131.202)"/><circle class="g" cx="3.591" cy="3.591" r="3.591" transform="translate(529.875 14.247)"/><path class="h" d="M485.159,148.31a7.652,7.652,0,1,1-7.652-7.652A7.651,7.651,0,0,1,485.159,148.31Z" transform="translate(-130.435 -47.762)"/></g></g></svg>